<?xml version="1.0" encoding="UTF-8" standalone="no"?>
<!-- Created with Inkscape (http://www.inkscape.org/) -->

<svg
   width="78.111725mm"
   height="75.457657mm"
   viewBox="0 0 78.111725 75.457657"
   version="1.1"
   id="svg5"
   inkscape:version="1.2.1 (9c6d41e410, 2022-07-14)"
   sodipodi:docname="WALLPAPER.svg"
   inkscape:export-filename="/Users/adelolmo/Desktop/WALLPAPER.svg"
   inkscape:export-xdpi="300"
   inkscape:export-ydpi="300"
   xmlns:inkscape="http://www.inkscape.org/namespaces/inkscape"
   xmlns:sodipodi="http://sodipodi.sourceforge.net/DTD/sodipodi-0.dtd"
   xmlns="http://www.w3.org/2000/svg"
   xmlns:svg="http://www.w3.org/2000/svg">
  <sodipodi:namedview
     id="namedview7"
     pagecolor="#ffffff"
     bordercolor="#000000"
     borderopacity="0.25"
     inkscape:showpageshadow="2"
     inkscape:pageopacity="0.0"
     inkscape:pagecheckerboard="0"
     inkscape:deskcolor="#d1d1d1"
     inkscape:document-units="mm"
     showgrid="false"
     inkscape:zoom="0.32346812"
     inkscape:cx="-1527.1984"
     inkscape:cy="961.45487"
     inkscape:window-width="3840"
     inkscape:window-height="2066"
     inkscape:window-x="-11"
     inkscape:window-y="-11"
     inkscape:window-maximized="1"
     inkscape:current-layer="layer1" />
  <defs
     id="defs2" />
  <g
     inkscape:label="Capa 1"
     inkscape:groupmode="layer"
     id="layer1"
     transform="translate(-39.025942,-41.220544)">
    <path
       style="fill:#00aeef;fill-opacity:1;stroke-width:0.720828"
       d="m 70.184228,115.99732 c 0.442032,-0.52452 1.77348,-1.34926 2.958768,-1.83274 1.817304,-0.74129 2.155056,-1.27737 2.155056,-3.42055 v -2.54153 l -1.66752,1.5427 c -1.778016,1.64491 -8.6082,5.27817 -9.069144,4.82426 -0.15144,-0.14928 1.466856,-1.61916 3.59628,-3.26666 4.357296,-3.37114 7.13112,-7.29626 7.136664,-10.09874 l 0.0024,-1.882943 -3.08712,2.774473 c -4.979232,4.47498 -7.322376,6.76182 -9.35928,9.1343 -1.052642,1.22606 -2.307458,2.22919 -2.788514,2.22919 -0.481032,0 -0.02832,-0.99036 1.005912,-2.20083 1.034306,-1.21044 1.880522,-2.49801 1.880522,-2.86125 0,-1.00879 -1.993706,-0.78941 -4.575938,0.50354 l -2.324664,1.164 1.725576,-1.84219 c 0.949056,-1.01321 2.600664,-2.03146 3.6702,-2.26279 1.069562,-0.23136 3.193178,-1.48315 4.71917,-2.78181 2.501352,-2.12871 2.688096,-2.52022 1.896696,-3.976441 -0.75492,-1.389096 -1.250448,-1.547544 -3.539208,-1.131624 -3.128834,0.568584 -5.67653,2.692585 -7.02161,5.853915 -0.941088,2.21183 -3.696096,4.34397 -4.539624,3.51325 -0.23208,-0.22848 -0.0492,-0.4156 0.406752,-0.4156 0.84708,0 2.462208,-2.66055 3.365352,-5.54369 0.795264,-2.538739 -2.82888,-2.179003 -5.404776,0.5365 -1.1196,1.18027 -2.451768,2.14594 -2.960376,2.14594 -0.560208,0 -0.302136,-0.65266 0.6546,-1.65557 2.094072,-2.19504 1.991568,-2.747833 -0.418152,-2.25516 l -1.997544,0.40843 1.815936,-1.021631 c 0.998784,-0.561888 3.999456,-1.245576 6.66816,-1.51932 2.668704,-0.273744 6.100848,-1.145376 7.626986,-1.936968 l 2.774808,-1.439256 -8.35337,0.290928 c -5.941824,0.20688 -9.024504,0.637296 -10.678056,1.490808 -3.43224,1.771584 -3.683232,1.47936 -1.037856,-1.208376 l 2.370288,-2.408256 -4.117176,-2.288207 c -2.264448,-1.258488 -4.002432,-2.399687 -3.862176,-2.535983 0.14016,-0.13632 2.216256,0.246816 4.613304,0.851304 3.676824,0.927239 6.103752,0.984071 15.52128,0.363599 7.77437,-0.512207 11.472026,-1.039775 12.180986,-1.737959 0.559896,-0.551376 1.21632,-3.093912 1.45872,-5.65008 0.525144,-5.538096 0.0192,-6.258456 -5.943552,-8.455267 -7.184114,-2.646967 -13.934354,-1.45716 -19.619114,3.458083 -1.372152,1.186416 -3.675408,2.281224 -5.404464,2.568888 -3.140712,0.522528 -4.86384,-0.0024 -2.474496,-0.75504 0.756312,-0.23808 2.192304,-0.790008 3.191064,-1.226712 l 1.81596,-0.794016 -1.81596,-0.25584 c -3.554736,-0.500784 -4.033704,-1.155778 -1.146336,-1.567627 3.569544,-0.509155 4.05384,-1.723968 1.158144,-2.905131 -3.58872,-1.463853 -3.15732,-2.002495 0.795192,-0.992844 3.151848,0.805121 4.052616,0.778913 6.510168,-0.189432 1.568688,-0.618108 2.85216,-1.399444 2.85216,-1.736308 0,-1.013662 -2.655456,-2.091816 -5.218488,-2.11879 -1.32468,-0.01416 -3.194592,-0.454322 -4.155384,-0.978619 -1.599144,-0.87265 -1.4382,-0.92406 1.903176,-0.607889 2.461344,0.232896 3.832272,0.05503 4.2096,-0.546206 0.633888,-1.010052 -0.846096,-2.053652 -4.72344,-3.330658 l -2.547984,-0.839172 2.384088,-0.05498 c 3.037008,-0.07003 6.384216,1.313429 9.556032,3.94969 2.290128,1.90342 3.1032,2.109964 9.806138,2.490986 4.019952,0.228504 7.446456,0.307716 7.614504,0.175992 0.168,-0.131688 -0.458256,-1.040078 -1.39176,-2.018604 -2.989776,-3.133994 -7.29912,-4.653835 -15.083426,-5.319691 -6.176208,-0.528303 -10.343232,-1.531289 -10.343232,-2.48958 0,-0.134544 1.524528,-0.07541 3.38784,0.131424 2.714064,0.301255 3.30576,0.177096 2.975184,-0.624355 -1.583616,-3.839451 -1.562544,-3.867579 1.150608,-1.536879 2.082264,1.788739 3.374232,2.324772 5.603232,2.324772 2.862864,0 2.883984,-0.01944 1.793304,-1.658777 -1.015656,-1.526484 -2.731272,-8.427078 -2.22024,-8.930324 0.12192,-0.119976 0.749904,1.308881 1.395672,3.175267 1.266936,3.661581 3.698498,6.698521 5.363258,6.698521 0.7806,0 0.972648,-0.785496 0.7788,-3.185664 -0.317448,-3.930704 0.59304,-3.220827 1.772736,1.382136 0.714624,2.788224 1.35948,3.687468 3.4212,4.770713 l 2.540616,1.334859 0.62004,-1.831755 c 0.818304,-2.417539 0.03648,-6.282101 -1.558488,-7.703534 -0.702144,-0.62577 -3.097824,-1.958821 -5.323704,-2.962338 -2.22588,-1.003515 -4.637472,-2.467063 -5.359128,-3.252331 -1.568138,-1.706367 -1.223978,-1.78592 1.553952,-0.359194 3.214896,1.651142 4.109496,1.399975 3.744168,-1.051222 -0.25392,-1.703848 -0.12552,-1.971847 0.643944,-1.34304 0.528648,0.432056 0.961176,1.340036 0.961176,2.017733 0,1.505386 2.546016,3.903091 3.517008,3.312135 0.386664,-0.23532 0.52764,-1.715374 0.31332,-3.288992 -0.46776,-3.434263 0.856536,-3.925723 1.53792,-0.570736 0.44424,2.187427 2.975568,5.578077 4.16436,5.578077 1.020168,0 4.444752,-4.981961 5.046672,-7.341732 0.498984,-1.956206 0.574032,-1.705783 0.484248,1.615721 -0.0852,3.153703 0.1332,3.976157 1.10532,4.160508 0.832752,0.157944 1.703136,-0.800074 2.783808,-3.064106 1.654322,-3.465768 2.66993,-4.060793 1.424306,-0.834459 -0.873554,2.262643 -0.07728,2.428325 3.868104,0.804922 1.447056,-0.595414 2.631024,-0.816895 2.631024,-0.492175 0,0.960004 -3.977952,3.573093 -8.314346,5.461644 -4.267008,1.858326 -5.48688,3.554031 -5.48688,7.62716 0,2.6316 1.39536,3.228113 4.204704,1.797482 2.193984,-1.117269 3.059114,-2.432174 3.059114,-4.649544 0,-0.679476 0.428544,-1.812568 0.952344,-2.517991 0.840528,-1.131997 0.917664,-0.990001 0.656928,1.209425 -0.649344,5.477359 3.543504,3.221621 6.355416,-3.419197 l 1.514424,-3.576576 -0.43788,3.576576 c -0.24084,1.967118 -0.902712,4.289509 -1.470864,5.160867 -1.456296,2.233596 -1.367784,2.349941 1.788048,2.349941 2.369762,0 3.241172,-0.458011 5.447852,-2.86332 2.93427,-3.198419 3.07887,-3.163273 1.57436,0.382692 l -1.05252,2.480628 3.05006,0.05837 3.05004,0.05837 -2.17913,0.941746 c -1.19853,0.51797 -5.23699,1.307126 -8.974366,1.753689 -7.292232,0.871318 -11.019074,2.330602 -13.906634,5.445252 l -1.815936,1.958777 2.179128,-0.520214 c 1.198536,-0.286116 4.622546,-0.496819 7.608938,-0.468226 5.001432,0.04786 5.646672,-0.11964 8.17913,-2.123789 3.07411,-2.432788 7.01954,-4.242674 9.24873,-4.242674 2.39492,0 1.68624,1.232587 -0.99324,1.727609 -2.3908,0.441681 -4.6804,2.199722 -3.885,2.98302 0.57022,0.561537 6.0834,0.545899 7.01304,-0.01992 0.43673,-0.2658 0.79407,-0.311599 0.79407,-0.10176 0,0.912693 -4.52141,2.565122 -7.04614,2.57514 -4.69891,0.01848 -5.17949,1.011067 -1.51401,3.126451 3.11136,1.795598 3.37744,1.830425 6.62721,0.867293 3.91392,-1.159975 4.31417,-0.937675 1.18279,0.656945 -2.56233,1.304848 -2.2842,2.204935 0.96749,3.130982 l 2.32498,0.662136 -2.44968,0.06456 c -2.09499,0.0552 -2.3184,0.22032 -1.54301,1.140336 0.49867,0.591696 1.9279,1.3674 3.17606,1.723776 2.26781,0.647496 2.26728,0.647976 -0.74901,0.712464 -2.44877,0.05232 -3.60264,-0.416208 -6.11439,-2.482728 -4.29837,-3.536482 -6.76538,-4.664018 -11.188268,-5.113543 -4.274472,-0.434446 -9.969242,1.077389 -13.051346,3.464846 -1.609968,1.247105 -1.857048,1.989809 -1.857048,5.582009 0,3.028968 0.38208,4.621848 1.420464,5.921808 1.379736,1.727376 1.770024,1.792584 13.619618,2.276015 10.12613,0.413136 12.74304,0.308352 15.39962,-0.616511 1.76024,-0.612816 3.3506,-0.966312 3.53417,-0.785544 0.31699,0.312192 -5.66498,4.311646 -7.37796,4.932814 -0.45026,0.1632 0.31867,1.485528 1.73292,2.979912 1.39829,1.477536 2.21547,2.54784 1.81596,2.378472 -0.3995,-0.16944 -1.97817,-0.869328 -3.50815,-1.55544 -2.72837,-1.22352 -17.193696,-2.620896 -17.193696,-1.660944 0,1.109472 6.035928,3.34152 9.036116,3.34152 3.00236,0 9.58119,1.933583 8.89109,2.613173 -0.16104,0.1584 -1.15509,-0.0348 -2.20929,-0.42951 -2.26481,-0.847967 -2.59539,0.18408 -0.71453,2.23075 1.07901,1.17416 1.08408,1.30812 0.0494,1.30812 -0.63399,0 -1.85095,-0.96568 -2.70437,-2.14596 -1.62612,-2.248845 -5.084664,-3.038109 -5.084664,-1.16032 0,1.63888 2.080174,6.00861 3.069044,6.44704 0.50933,0.22584 0.285,0.33379 -0.4985,0.24 -0.86345,-0.10344 -2.279856,-1.64638 -3.59604,-3.91725 -1.724592,-2.97557 -2.808528,-3.986187 -5.267088,-4.910811 -3.581184,-1.346832 -5.329514,-0.954096 -5.329514,1.197216 0,1.793525 2.030522,3.644235 6.583058,6.000045 1.822872,0.94332 3.784104,2.29797 4.35828,3.01034 1.00296,1.2444 0.966504,1.24659 -0.928056,0.0557 -4.015752,-2.52401 -5.777592,-0.51741 -2.56788,2.92459 l 1.634352,1.75265 -1.666152,-0.85433 c -0.916344,-0.46989 -2.798952,-2.40712 -4.183536,-4.305 -1.38456,-1.89787 -3.505994,-3.85392 -4.714298,-4.3468 -1.20828,-0.49286 -2.80488,-1.65727 -3.547968,-2.58758 -1.88184,-2.355915 -2.11896,-2.139435 -1.477056,1.34863 0.47196,2.56456 1.39404,3.79523 5.89512,7.86794 l 5.335634,4.82784 -4.052714,-2.13303 c -2.228928,-1.17309 -4.6494,-2.78232 -5.37876,-3.57597 -1.893528,-2.06043 -2.553744,-1.79489 -2.553744,1.0271 0,2.25187 0.298728,2.60026 3.380976,3.94291 1.85952,0.81003 3.242808,1.60884 3.073968,1.77512 -0.362424,0.3569 -7.574352,-1.89341 -8.268096,-2.57986 -0.262296,-0.25954 -1.350816,-0.054 -2.418984,0.4571 -1.068144,0.51096 -3.028392,1.26756 -4.356096,1.68135 -1.987968,0.61958 -2.272152,0.58406 -1.610256,-0.20136 z"
       id="TREE-4-9-5"
       inkscape:export-filename="logo.svg"
       inkscape:export-xdpi="300"
       inkscape:export-ydpi="300" />
  </g>
</svg>
